<?xml version="1.0" encoding="UTF-8"?>
<svg id="Camada_1" data-name="Camada 1" xmlns="http://www.w3.org/2000/svg" viewBox="0 0 180 180">
  <defs>
    <style>
      .cls-1 {
        fill: none;
        stroke: #6a5095;
        stroke-linecap: round;
        stroke-linejoin: round;
        stroke-width: 3px;
      }

      .cls-2, .cls-3 {
        fill: #6a5095;
      }

      .cls-4, .cls-5 {
        fill: #dfa232;
      }

      .cls-4, .cls-3 {
        fill-rule: evenodd;
      }
    </style>
  </defs>
  <g>
    <g>
      <g>
        <path class="cls-3" d="M47.02,108.84l-.04-34.85c.04-1.57-.04-3.18,0-4.75.04-1.25.16-2.46.81-3.55,1.13-1.89,4.63-3.34,6.57-4.39l52.21-28.8-7.17-4.15c-7.65-4.43-8.9-5.8-16.96-1.17l-34.64,20.02c-4.67,2.7-10.88,6.24-13.74,11-2.46,3.99-2.78,9.02-2.78,13.58v27.76l15.75,9.31Z"/>
        <path class="cls-3" d="M127.14,118.62l-30.13,17.44c-1.41.81-2.74,1.65-4.15,2.42-1.09.56-2.18,1.09-3.42,1.05-2.26-.04-5.24-2.34-7.13-3.46l-51.04-30.82v8.26c0,8.86-.56,10.64,7.45,15.27l34.64,20.02c4.71,2.7,10.88,6.28,16.44,6.41,4.67.12,9.18-2.14,13.13-4.39l24.05-13.86.16-18.33Z"/>
        <path class="cls-3" d="M95.56,44.34l30.17,17.4c1.37.81,2.78,1.53,4.15,2.38,1.09.64,2.05,1.33,2.66,2.42,1.09,1.97.6,5.72.56,7.9l-1.17,59.66,7.17-4.15c7.65-4.43,9.47-4.83,9.47-14.1v-40.04c0-5.4,0-12.53-2.66-17.4-2.26-4.11-6.45-6.93-10.39-9.18l-24.01-13.9-15.95,9.02Z"/>
      </g>
      <g>
        <path class="cls-2" d="M47.42,109.54l-16.56-9.78v-27.99c0-4.77.34-9.74,2.84-13.79,2.88-4.78,9.14-8.4,13.71-11.04l34.81-20.12c7.74-4.45,9.49-3.43,15.97.36l9.18,5.32-52.83,29.15c-.38.2-.81.42-1.27.65-1.91.96-4.29,2.16-5.15,3.59-.63,1.06-.71,2.28-.75,3.35-.02.78,0,1.57,0,2.37.01.8.02,1.6,0,2.39l.04,35.54ZM31.67,99.3l14.94,8.83-.04-34.14c.02-.79.01-1.58,0-2.37,0-.8-.02-1.61,0-2.4.04-1.17.14-2.52.86-3.74.97-1.63,3.47-2.89,5.48-3.9.45-.23.88-.44,1.24-.64l51.58-28.46-7.95-4.61c-6.47-3.79-7.82-4.57-15.16-.35l-34.81,20.12c-4.5,2.6-10.65,6.15-13.43,10.76-2.39,3.88-2.72,8.72-2.72,13.37v27.53Z"/>
        <path class="cls-2" d="M90.16,155.61c-.12,0-.25,0-.37,0-5.56-.12-11.56-3.56-16.38-6.32l-.25-.14-34.65-20.02c-7.7-4.45-7.69-6.47-7.66-13.98v-10.61s51.66,31.19,51.66,31.19c.39.23.83.52,1.31.83,1.76,1.14,3.95,2.55,5.62,2.58,1.14.04,2.13-.43,3.23-1,.82-.45,1.62-.93,2.43-1.41.56-.34,1.13-.67,1.7-1l30.74-17.8-.17,19.27-24.25,13.97c-4.06,2.32-8.43,4.45-12.97,4.45ZM31.67,105.96v9.18c-.04,7.5-.04,9.07,7.25,13.28l34.89,20.16c4.74,2.71,10.64,6.09,15.99,6.21,4.48.12,8.86-2.02,12.92-4.34l23.85-13.74.15-17.39-29.52,17.09c-.58.33-1.13.66-1.69,1-.82.49-1.63.97-2.47,1.43-1.21.63-2.31,1.14-3.63,1.1-1.9-.03-4.19-1.52-6.04-2.71-.46-.3-.9-.58-1.28-.81l-50.43-30.45Z"/>
        <path class="cls-2" d="M131.52,134.8l1.18-60.38c0-.43.03-.92.06-1.45.11-2.12.24-4.75-.57-6.24-.53-.96-1.39-1.6-2.51-2.26-.8-.49-1.6-.94-2.4-1.39-.58-.33-1.17-.65-1.75-.99l-30.78-17.75,16.77-9.48,24.21,14.01c3.9,2.23,8.21,5.08,10.54,9.34,2.71,4.97,2.71,12.27,2.71,17.6v40.04c0,8.9-1.75,9.91-8.27,13.64l-9.19,5.31ZM96.37,44.34l29.56,17.05c.57.34,1.15.66,1.73.98.81.45,1.63.91,2.43,1.4,1.23.73,2.18,1.44,2.8,2.56.93,1.69.79,4.45.67,6.67-.03.52-.05,1-.06,1.43l-1.15,58.95,7.96-4.6c6.51-3.73,7.86-4.51,7.86-12.94v-40.04c0-5.24,0-12.43-2.61-17.21-2.24-4.08-6.43-6.85-10.24-9.03l-23.81-13.78-15.14,8.56Z"/>
      </g>
    </g>
    <g>
      <g>
        <path class="cls-4" d="M13.38,89.5l13.54,7.98v-31.7c0-6.12-.12-11.08,5.88-14.58l51.97-30.37c5.64-3.26,7.53-1.61,12.57,1.29l9.59,5.56c1.41.81,3.38,1.89,5.08,1.73,1.81-.2,4.59-1.97,6.16-2.86l5.12-2.86c.32-.2,1.21-.73,1.53-1.13-.28-.32-.97-.77-1.25-.89l-25.38-14.58c-1.73-.97-3.42-2.05-5.16-3.06-.68-.4-1.65-.93-2.5-1.01-1.69-.16-5.2,1.97-6.61,2.82L27.44,38.42c-2.54,1.49-5.16,2.86-7.61,4.43-1.49,1.01-3.06,2.14-4.15,3.59-2.22,3.06-2.3,8.06-2.3,11.68v31.38Z"/>
        <path class="cls-4" d="M127.22,157.46l.16-15.71-27.47,15.83c-5.28,3.06-9.55,5.64-15.55,2.18l-52.29-29.81c-5.64-3.26-5.16-5.72-5.16-11.52v-11.08c0-1.65-.08-3.87-1.09-5.28-1.05-1.45-3.99-2.98-5.52-3.91l-5.04-2.98c-.32-.2-1.25-.68-1.73-.77-.16.4-.16,1.21-.16,1.53l.08,29.25c0,1.97-.12,3.99-.08,6,0,.81,0,1.93.36,2.7.73,1.53,4.31,3.46,5.72,4.27l56.52,32.63c2.5,1.45,5.04,3.02,7.61,4.35,1.61.85,3.38,1.61,5.2,1.81,3.75.4,8.1-2.01,11.24-3.83l27.19-15.67Z"/>
        <path class="cls-4" d="M129.16,24.88l-13.7,7.69,27.43,15.87c5.32,3.06,9.67,5.44,9.71,12.37l.32,60.23c0,6.49-2.38,7.33-7.41,10.23l-9.59,5.52c-1.41.81-3.34,1.97-4.03,3.55-.73,1.65-.6,4.95-.6,6.77l-.08,5.88c-.04.32,0,1.37.2,1.85.4-.08,1.13-.48,1.37-.6l25.3-14.7c1.73-1.01,3.5-1.93,5.24-2.94.73-.4,1.69-.97,2.18-1.65.97-1.41.85-5.52.85-7.13V62.59c0-2.94.08-5.92-.04-8.82-.08-1.77-.28-3.71-1.05-5.36-1.53-3.46-5.8-6.04-8.94-7.86l-27.15-15.67Z"/>
      </g>
      <g>
        <path class="cls-5" d="M27.32,98.18l-14.34-8.45v-31.61c0-3.23,0-8.64,2.37-11.92,1.14-1.52,2.79-2.7,4.25-3.68,1.58-1.01,3.25-1.95,4.86-2.86.93-.52,1.86-1.05,2.77-1.58L83.82,5.42c2.45-1.47,5.16-2.96,6.74-2.81.91.09,1.9.61,2.66,1.06.73.42,1.44.86,2.16,1.29.99.6,1.98,1.2,2.99,1.76l25.38,14.59c.3.12,1.03.6,1.35.97l.22.25-.21.26c-.33.42-1.1.89-1.52,1.15l-.11.07-5.13,2.87c-.24.13-.51.29-.8.46-1.65.96-3.9,2.27-5.52,2.45-1.75.16-3.66-.83-5.32-1.78l-10.7-6.2c-4.16-2.43-6.05-3.54-11.06-.65l-51.97,30.37c-5.69,3.32-5.68,7.98-5.68,13.88v.36s0,32.41,0,32.41ZM13.78,89.27l12.73,7.5v-31.35c0-5.91,0-11.02,6.08-14.58l51.97-30.37c5.41-3.13,7.57-1.87,11.87.65l10.69,6.2c1.2.69,3.22,1.84,4.84,1.68,1.44-.16,3.61-1.42,5.2-2.34.29-.17.56-.33.81-.46l5.22-2.92c.24-.15.71-.44,1.04-.71-.28-.22-.64-.45-.82-.52l-25.42-14.6c-1.01-.56-2.01-1.17-3.01-1.78-.71-.43-1.43-.87-2.15-1.29-.69-.41-1.58-.88-2.33-.95-1.51-.14-4.95,1.92-6.25,2.7l-.11.07L27.64,38.77c-.92.54-1.85,1.07-2.78,1.59-1.6.9-3.26,1.84-4.82,2.83-1.4.94-2.99,2.08-4.04,3.49-2.21,3.06-2.21,8.31-2.21,11.44v31.15Z"/>
        <path class="cls-5" d="M89.63,177.4c-.3,0-.59-.01-.88-.05-2.05-.23-4.03-1.17-5.34-1.86-1.9-.98-3.79-2.1-5.62-3.18-.67-.4-1.34-.79-2.01-1.18l-56.88-32.84c-1.68-.95-4.79-2.71-5.52-4.24-.4-.85-.4-2.02-.4-2.87-.02-1.16,0-2.33.04-3.47.02-.85.04-1.7.04-2.53l-.08-29.25c0-.56.02-1.26.19-1.68l.12-.3.32.05c.59.1,1.58.64,1.88.82l5.03,2.98c.27.16.58.34.91.53,1.61.94,3.82,2.22,4.73,3.48,1.03,1.44,1.16,3.59,1.16,5.51v12.35c-.04,4.95-.05,7,4.96,9.9l52.29,29.81c5.72,3.3,9.78.94,14.92-2.04l.22-.13,28.09-16.18-.17,16.65-27.39,15.79c-2.59,1.5-6.8,3.92-10.6,3.92ZM13.83,94.92c-.05.37-.05.84-.05,1.03l.08,29.25c0,.85-.02,1.7-.04,2.56-.03,1.13-.06,2.29-.04,3.44,0,.79,0,1.85.32,2.53.61,1.3,3.7,3.04,5.19,3.88l.37.21,56.52,32.63c.67.39,1.34.79,2.01,1.18,1.82,1.08,3.7,2.19,5.58,3.16,1.26.66,3.14,1.56,5.06,1.77,3.75.4,8.28-2.21,10.99-3.78l26.99-15.56.15-14.78-27.08,15.61c-5.16,2.99-9.61,5.58-15.73,2.05l-52.29-29.81c-5.41-3.13-5.4-5.63-5.36-10.6v-12.35c0-1.79-.12-3.79-1.01-5.04-.81-1.13-2.93-2.36-4.48-3.26-.34-.2-.65-.38-.92-.54l-5.03-2.98c-.26-.16-.81-.45-1.23-.61Z"/>
        <path class="cls-5" d="M131.17,155.3l-.13-.3c-.24-.58-.27-1.72-.23-2.06l.08-5.84v-.68c-.02-1.98-.04-4.7.64-6.24.78-1.78,3-3.05,4.2-3.73l10.64-6.12c4.23-2.4,6.16-3.5,6.16-9.28l-.32-60.22c-.04-6.57-4.09-8.9-9.22-11.86l-.29-.16-28.05-16.23,14.51-8.15,27.35,15.79c3.61,2.08,7.59,4.59,9.11,8.04.81,1.75,1,3.76,1.08,5.5.09,2.08.07,4.24.05,6.32,0,.84-.01,1.68-.01,2.52v65.71c.01,1.92.03,5.48-.92,6.87-.5.71-1.41,1.27-2.31,1.78-.86.5-1.75.99-2.63,1.48-.87.48-1.74.96-2.6,1.46l-25.47,14.79c-.45.23-.96.49-1.32.56l-.32.06ZM116.27,32.58l27.11,15.68c5.14,2.96,9.59,5.51,9.63,12.55l.32,60.23c0,6.25-2.19,7.5-6.57,9.99l-10.63,6.12c-1.12.64-3.19,1.82-3.86,3.36-.61,1.38-.59,4.11-.57,5.91v.7s-.08,5.89-.08,5.89c-.03.24-.01.87.07,1.33.27-.11.58-.27.75-.37l.16-.08,25.28-14.69c.87-.5,1.74-.99,2.62-1.47.88-.48,1.75-.97,2.62-1.47.56-.31,1.59-.88,2.05-1.54.8-1.17.78-4.71.77-6.4v-.49s0-65.22,0-65.22c0-.84,0-1.68.01-2.53.02-2.07.03-4.21-.05-6.28-.08-1.66-.25-3.57-1.01-5.21-1.43-3.23-5.28-5.66-8.78-7.68l-26.95-15.56-12.88,7.24Z"/>
      </g>
    </g>
  </g>
  <line class="cls-1" x1="54.65" y1="71.33" x2="88.89" y2="88.56"/>
  <line class="cls-1" x1="124.53" y1="71.4" x2="90.7" y2="88.98"/>
  <line class="cls-1" x1="89.95" y1="130.38" x2="89.95" y2="90.32"/>
</svg>