<?xml version="1.0" encoding="UTF-8"?>
<svg id="Camada_1" data-name="Camada 1" xmlns="http://www.w3.org/2000/svg" viewBox="0 0 16 16">
  <defs>
    <style>
      .cls-1, .cls-2 {
        fill: #6a5095;
      }

      .cls-3, .cls-4 {
        fill: #dfa232;
      }

      .cls-3, .cls-2 {
        fill-rule: evenodd;
      }

      .cls-5 {
        fill: none;
        stroke: #6a5095;
        stroke-linecap: round;
        stroke-linejoin: round;
        stroke-width: .25px;
      }
    </style>
  </defs>
  <g>
    <g>
      <g>
        <path class="cls-2" d="M4.27,9.58v-2.92c0-.13,0-.27,0-.4,0-.1.01-.21.07-.3.09-.16.39-.28.55-.37l4.38-2.42-.6-.35c-.64-.37-.75-.49-1.42-.1l-2.91,1.68c-.39.23-.91.52-1.15.92-.21.33-.23.76-.23,1.14v2.33l1.32.78Z"/>
        <path class="cls-2" d="M11,10.4l-2.53,1.46c-.12.07-.23.14-.35.2-.09.05-.18.09-.29.09-.19,0-.44-.2-.6-.29l-4.28-2.59v.69c0,.74-.05.89.63,1.28l2.91,1.68c.4.23.91.53,1.38.54.39.01.77-.18,1.1-.37l2.02-1.16v-1.54Z"/>
        <path class="cls-2" d="M8.35,4.17l2.53,1.46c.11.07.23.13.35.2.09.05.17.11.22.2.09.17.05.48.05.66l-.1,5.01.6-.35c.64-.37.79-.41.79-1.18v-3.36c0-.45,0-1.05-.22-1.46-.19-.34-.54-.58-.87-.77l-2.02-1.17-1.34.76Z"/>
      </g>
      <g>
        <path class="cls-1" d="M4.31,9.64l-1.39-.82v-2.35c0-.4.03-.82.24-1.16.24-.4.77-.7,1.15-.93l2.92-1.69c.65-.37.8-.29,1.34.03l.77.45-4.43,2.45s-.07.04-.11.05c-.16.08-.36.18-.43.3-.05.09-.06.19-.06.28,0,.07,0,.13,0,.2,0,.07,0,.13,0,.2v2.98ZM2.98,8.78l1.25.74v-2.87c0-.07,0-.13,0-.2,0-.07,0-.13,0-.2,0-.1.01-.21.07-.31.08-.14.29-.24.46-.33.04-.02.07-.04.1-.05l4.33-2.39-.67-.39c-.54-.32-.66-.38-1.27-.03l-2.92,1.69c-.38.22-.89.52-1.13.9-.2.33-.23.73-.23,1.12v2.31Z"/>
        <path class="cls-1" d="M7.89,13.51s-.02,0-.03,0c-.47-.01-.97-.3-1.37-.53h-.02s-2.91-1.69-2.91-1.69c-.65-.37-.65-.54-.64-1.17v-.89s4.34,2.62,4.34,2.62c.03.02.07.04.11.07.15.1.33.21.47.22.1,0,.18-.04.27-.08.07-.04.14-.08.2-.12.05-.03.09-.06.14-.08l2.58-1.49v1.62s-2.05,1.17-2.05,1.17c-.34.19-.71.37-1.09.37ZM2.98,9.34v.77c0,.63,0,.76.61,1.11l2.93,1.69c.4.23.89.51,1.34.52.38.01.74-.17,1.08-.36l2-1.15v-1.46s-2.47,1.43-2.47,1.43c-.05.03-.1.06-.14.08-.07.04-.14.08-.21.12-.1.05-.19.1-.3.09-.16,0-.35-.13-.51-.23-.04-.03-.08-.05-.11-.07l-4.23-2.56Z"/>
        <path class="cls-1" d="M11.36,11.76l.1-5.07s0-.08,0-.12c0-.18.02-.4-.05-.52-.04-.08-.12-.13-.21-.19-.07-.04-.13-.08-.2-.12-.05-.03-.1-.05-.15-.08l-2.58-1.49,1.41-.8,2.03,1.18c.33.19.69.43.89.78.23.42.23,1.03.23,1.48v3.36c0,.75-.15.83-.69,1.15l-.77.45ZM8.41,4.17l2.48,1.43s.1.06.15.08c.07.04.14.08.2.12.1.06.18.12.23.22.08.14.07.37.06.56,0,.04,0,.08,0,.12l-.1,4.95.67-.39c.55-.31.66-.38.66-1.09v-3.36c0-.44,0-1.04-.22-1.44-.19-.34-.54-.58-.86-.76l-2-1.16-1.27.72Z"/>
      </g>
    </g>
    <g>
      <g>
        <path class="cls-3" d="M1.45,7.96l1.14.67v-2.66c0-.51-.01-.93.49-1.22l4.36-2.55c.47-.27.63-.14,1.06.11l.8.47c.12.07.28.16.43.15.15-.02.39-.17.52-.24l.43-.24s.1-.06.13-.09c-.02-.03-.08-.06-.1-.07l-2.13-1.22c-.15-.08-.29-.17-.43-.26-.06-.03-.14-.08-.21-.08-.14-.01-.44.17-.55.24L2.63,3.67c-.21.13-.43.24-.64.37-.13.08-.26.18-.35.3-.19.26-.19.68-.19.98v2.63Z"/>
        <path class="cls-3" d="M11,13.66v-1.32s-2.29,1.33-2.29,1.33c-.44.26-.8.47-1.31.18l-4.39-2.5c-.47-.27-.43-.48-.43-.97v-.93c0-.14,0-.32-.09-.44-.09-.12-.33-.25-.46-.33l-.42-.25s-.1-.06-.15-.06c-.01.03-.01.1-.01.13v2.45c0,.17,0,.33,0,.5,0,.07,0,.16.03.23.06.13.36.29.48.36l4.74,2.74c.21.12.42.25.64.37.14.07.28.14.44.15.31.03.68-.17.94-.32l2.28-1.32Z"/>
        <path class="cls-3" d="M11.17,2.53l-1.15.65,2.3,1.33c.45.26.81.46.81,1.04l.03,5.06c0,.54-.2.62-.62.86l-.8.46c-.12.07-.28.17-.34.3-.06.14-.05.42-.05.57v.49s0,.11.01.16c.03,0,.09-.04.11-.05l2.12-1.23c.15-.08.29-.16.44-.25.06-.03.14-.08.18-.14.08-.12.07-.46.07-.6v-5.47c0-.25,0-.5,0-.74,0-.15-.02-.31-.09-.45-.13-.29-.49-.51-.75-.66l-2.28-1.32Z"/>
      </g>
      <g>
        <path class="cls-4" d="M2.62,8.69l-1.2-.71v-2.65c0-.27,0-.73.2-1,.1-.13.23-.23.36-.31.13-.09.27-.16.41-.24.08-.04.16-.09.23-.13L7.36.9c.21-.12.43-.25.57-.24.08,0,.16.05.22.09.06.04.12.07.18.11.08.05.17.1.25.15l2.13,1.22s.09.05.11.08l.02.02-.02.02s-.09.07-.13.1h0s-.43.25-.43.25c-.02.01-.04.02-.07.04-.14.08-.33.19-.46.21-.15.01-.31-.07-.45-.15l-.9-.52c-.35-.2-.51-.3-.93-.05l-4.36,2.55c-.48.28-.48.67-.48,1.17v.03s0,2.72,0,2.72ZM1.48,7.94l1.07.63v-2.63c0-.5,0-.93.51-1.22l4.36-2.55c.45-.26.64-.16,1,.05l.9.52c.1.06.27.15.41.14.12-.01.3-.12.44-.2.02-.01.05-.03.07-.04l.44-.25s.06-.04.09-.06c-.02-.02-.05-.04-.07-.04l-2.13-1.23c-.08-.05-.17-.1-.25-.15-.06-.04-.12-.07-.18-.11-.06-.03-.13-.07-.2-.08-.13-.01-.42.16-.52.23h0S2.64,3.7,2.64,3.7c-.08.05-.16.09-.23.13-.13.08-.27.15-.4.24-.12.08-.25.17-.34.29-.19.26-.19.7-.19.96v2.61Z"/>
        <path class="cls-4" d="M7.85,15.34s-.05,0-.07,0c-.17-.02-.34-.1-.45-.16-.16-.08-.32-.18-.47-.27-.06-.03-.11-.07-.17-.1l-4.77-2.76c-.14-.08-.4-.23-.46-.36-.03-.07-.03-.17-.03-.24,0-.1,0-.2,0-.29,0-.07,0-.14,0-.21v-2.45s0-.11,0-.14v-.03s.04,0,.04,0c.05,0,.13.05.16.07l.42.25s.05.03.08.04c.14.08.32.19.4.29.09.12.1.3.1.46v1.04c0,.42,0,.59.42.83l4.39,2.5c.48.28.82.08,1.25-.17h.02s2.36-1.37,2.36-1.37v1.4s-2.31,1.33-2.31,1.33c-.22.13-.57.33-.89.33ZM1.49,8.41s0,.07,0,.09v2.45c0,.07,0,.14,0,.21,0,.09,0,.19,0,.29,0,.07,0,.16.03.21.05.11.31.26.44.33l.03.02,4.74,2.74c.06.03.11.07.17.1.15.09.31.18.47.27.11.06.26.13.42.15.31.03.7-.19.92-.32l2.27-1.31v-1.24s-2.26,1.31-2.26,1.31c-.43.25-.81.47-1.32.17l-4.39-2.5c-.45-.26-.45-.47-.45-.89v-1.04c0-.15,0-.32-.08-.42-.07-.09-.25-.2-.38-.27-.03-.02-.05-.03-.08-.05l-.42-.25s-.07-.04-.1-.05Z"/>
        <path class="cls-4" d="M11.34,13.48v-.03s-.03-.14-.03-.17v-.49s0-.06,0-.06c0-.17,0-.39.05-.52.07-.15.25-.26.35-.31l.89-.51c.36-.2.52-.29.52-.78l-.03-5.06c0-.55-.34-.75-.77-1h-.02s-2.35-1.38-2.35-1.38l1.22-.68,2.3,1.33c.3.17.64.39.76.68.07.15.08.32.09.46,0,.17,0,.36,0,.53,0,.07,0,.14,0,.21v5.52c0,.16,0,.46-.08.58-.04.06-.12.11-.19.15-.07.04-.15.08-.22.12-.07.04-.15.08-.22.12l-2.14,1.24s-.08.04-.11.05h-.03ZM10.08,3.18l2.28,1.32c.43.25.8.46.81,1.05l.03,5.06c0,.52-.18.63-.55.84l-.89.51c-.09.05-.27.15-.32.28-.05.12-.05.34-.05.5v.06s0,.49,0,.49c0,.02,0,.07,0,.11.02,0,.05-.02.06-.03h.01s2.12-1.24,2.12-1.24c.07-.04.15-.08.22-.12.07-.04.15-.08.22-.12.05-.03.13-.07.17-.13.07-.1.07-.4.06-.54v-.04s0-5.47,0-5.47c0-.07,0-.14,0-.21,0-.17,0-.35,0-.53,0-.14-.02-.3-.08-.44-.12-.27-.44-.47-.74-.64l-2.26-1.31-1.08.61Z"/>
      </g>
    </g>
  </g>
  <line class="cls-5" x1="4.91" y1="6.43" x2="7.79" y2="7.88"/>
  <line class="cls-5" x1="10.78" y1="6.44" x2="7.94" y2="7.91"/>
  <line class="cls-5" x1="7.87" y1="11.39" x2="7.87" y2="8.03"/>
</svg>