<?xml version="1.0" encoding="UTF-8"?>
<svg id="Camada_1" data-name="Camada 1" xmlns="http://www.w3.org/2000/svg" viewBox="0 0 32 32">
  <defs>
    <style>
      .cls-1, .cls-2 {
        fill: #6a5095;
      }

      .cls-3, .cls-4 {
        fill: #dfa232;
      }

      .cls-3, .cls-2 {
        fill-rule: evenodd;
      }

      .cls-5 {
        fill: none;
        stroke: #6a5095;
        stroke-linecap: round;
        stroke-linejoin: round;
        stroke-width: .53px;
      }
    </style>
  </defs>
  <g>
    <g>
      <g>
        <path class="cls-2" d="M8.23,19.36v-6.21c0-.28-.01-.57,0-.85,0-.22.03-.44.14-.63.2-.34.83-.6,1.17-.78l9.31-5.14-1.28-.74c-1.36-.79-1.59-1.03-3.02-.21l-6.18,3.57c-.83.48-1.94,1.11-2.45,1.96-.44.71-.5,1.61-.5,2.42v4.95l2.81,1.66Z"/>
        <path class="cls-2" d="M22.51,21.1l-5.37,3.11c-.25.14-.49.29-.74.43-.19.1-.39.19-.61.19-.4,0-.93-.42-1.27-.62l-9.1-5.49v1.47c0,1.58-.1,1.9,1.33,2.72l6.18,3.57c.84.48,1.94,1.12,2.93,1.14.83.02,1.64-.38,2.34-.78l4.29-2.47.03-3.27Z"/>
        <path class="cls-2" d="M16.88,7.86l5.38,3.1c.24.14.5.27.74.42.19.11.37.24.47.43.19.35.11,1.02.1,1.41l-.21,10.64,1.28-.74c1.36-.79,1.69-.86,1.69-2.51v-7.14c0-.96,0-2.23-.47-3.1-.4-.73-1.15-1.24-1.85-1.64l-4.28-2.48-2.84,1.61Z"/>
      </g>
      <g>
        <path class="cls-1" d="M8.3,19.48l-2.95-1.74v-4.99c0-.85.06-1.74.51-2.46.51-.85,1.63-1.5,2.44-1.97l6.21-3.59c1.38-.79,1.69-.61,2.85.06l1.64.95-9.42,5.2c-.07.04-.14.08-.23.12-.34.17-.77.39-.92.64-.11.19-.13.41-.13.6,0,.14,0,.28,0,.42,0,.14,0,.28,0,.43v6.34ZM5.49,17.66l2.66,1.57v-6.09c0-.14,0-.28,0-.42,0-.14,0-.29,0-.43,0-.21.02-.45.15-.67.17-.29.62-.52.98-.7.08-.04.16-.08.22-.11l9.2-5.07-1.42-.82c-1.15-.68-1.39-.82-2.7-.06l-6.21,3.59c-.8.46-1.9,1.1-2.39,1.92-.43.69-.49,1.55-.49,2.38v4.91Z"/>
        <path class="cls-1" d="M15.92,27.7s-.04,0-.07,0c-.99-.02-2.06-.63-2.92-1.13l-.04-.03-6.18-3.57c-1.37-.79-1.37-1.15-1.37-2.49v-1.89s9.21,5.56,9.21,5.56c.07.04.15.09.23.15.31.2.7.45,1,.46.2,0,.38-.08.58-.18.15-.08.29-.16.43-.25.1-.06.2-.12.3-.18l5.48-3.17-.03,3.43-4.32,2.49c-.72.41-1.5.79-2.31.79ZM5.49,18.85v1.64c0,1.34,0,1.62,1.29,2.37l6.22,3.59c.84.48,1.9,1.09,2.85,1.11.8.02,1.58-.36,2.3-.77l4.25-2.45.03-3.1-5.26,3.05c-.1.06-.2.12-.3.18-.15.09-.29.17-.44.25-.22.11-.41.2-.65.2-.34,0-.75-.27-1.08-.48-.08-.05-.16-.1-.23-.14l-8.99-5.43Z"/>
        <path class="cls-1" d="M23.29,23.99l.21-10.76c0-.08,0-.16.01-.26.02-.38.04-.85-.1-1.11-.1-.17-.25-.29-.45-.4-.14-.09-.29-.17-.43-.25-.1-.06-.21-.12-.31-.18l-5.49-3.17,2.99-1.69,4.32,2.5c.7.4,1.46.91,1.88,1.67.48.89.48,2.19.48,3.14v7.14c0,1.59-.31,1.77-1.47,2.43l-1.64.95ZM17.03,7.86l5.27,3.04c.1.06.21.12.31.18.14.08.29.16.43.25.22.13.39.26.5.46.17.3.14.79.12,1.19,0,.09,0,.18-.01.25l-.21,10.51,1.42-.82c1.16-.66,1.4-.8,1.4-2.31v-7.14c0-.93,0-2.22-.47-3.07-.4-.73-1.15-1.22-1.83-1.61l-4.25-2.46-2.7,1.53Z"/>
      </g>
    </g>
    <g>
      <g>
        <path class="cls-3" d="M2.23,15.91l2.41,1.42v-5.65c0-1.09-.02-1.98,1.05-2.6L14.96,3.67c1.01-.58,1.34-.29,2.24.23l1.71.99c.25.14.6.34.9.31.32-.04.82-.35,1.1-.51l.91-.51c.06-.04.22-.13.27-.2-.05-.06-.17-.14-.22-.16l-4.52-2.6c-.31-.17-.61-.37-.92-.55-.12-.07-.29-.17-.45-.18-.3-.03-.93.35-1.18.5L4.74,6.8c-.45.27-.92.51-1.36.79-.27.18-.55.38-.74.64-.4.55-.41,1.44-.41,2.08v5.59Z"/>
        <path class="cls-3" d="M22.53,28.03l.03-2.8-4.9,2.82c-.94.55-1.7,1.01-2.77.39l-9.32-5.31c-1.01-.58-.92-1.02-.92-2.05v-1.98c0-.29-.01-.69-.19-.94-.19-.26-.71-.53-.98-.7l-.9-.53c-.06-.04-.22-.12-.31-.14-.03.07-.03.22-.03.27v5.21c.01.35,0,.71,0,1.07,0,.14,0,.34.06.48.13.27.77.62,1.02.76l10.08,5.82c.45.26.9.54,1.36.78.29.15.6.29.93.32.67.07,1.44-.36,2-.68l4.85-2.79Z"/>
        <path class="cls-3" d="M22.87,4.39l-2.44,1.37,4.89,2.83c.95.55,1.72.97,1.73,2.2l.06,10.74c0,1.16-.42,1.31-1.32,1.82l-1.71.98c-.25.14-.6.35-.72.63-.13.29-.11.88-.11,1.21v1.05c-.02.06-.01.24.02.33.07-.01.2-.09.24-.11l4.51-2.62c.31-.18.62-.34.93-.52.13-.07.3-.17.39-.29.17-.25.15-.98.15-1.27v-11.63c0-.52.01-1.06,0-1.57-.01-.32-.05-.66-.19-.96-.27-.62-1.03-1.08-1.59-1.4l-4.84-2.79Z"/>
      </g>
      <g>
        <path class="cls-4" d="M4.72,17.46l-2.56-1.51v-5.64c0-.58,0-1.54.42-2.12.2-.27.5-.48.76-.66.28-.18.58-.35.87-.51.17-.09.33-.19.49-.28L14.79.92c.44-.26.92-.53,1.2-.5.16.02.34.11.47.19.13.08.26.15.39.23.18.11.35.21.53.31l4.53,2.6c.05.02.18.11.24.17l.04.05-.04.05c-.06.07-.2.16-.27.2h-.02s-.92.52-.92.52c-.04.02-.09.05-.14.08-.29.17-.7.4-.98.44-.31.03-.65-.15-.95-.32l-1.91-1.11c-.74-.43-1.08-.63-1.97-.12l-9.26,5.41c-1.01.59-1.01,1.42-1.01,2.47v.06s0,5.78,0,5.78ZM2.3,15.87l2.27,1.34v-5.59c0-1.05,0-1.97,1.08-2.6L14.92,3.6c.97-.56,1.35-.33,2.12.12l1.91,1.11c.21.12.57.33.86.3.26-.03.64-.25.93-.42.05-.03.1-.06.14-.08l.93-.52s.13-.08.19-.13c-.05-.04-.11-.08-.15-.09l-4.53-2.6c-.18-.1-.36-.21-.54-.32-.13-.08-.25-.15-.38-.23-.12-.07-.28-.16-.42-.17-.27-.03-.88.34-1.11.48h-.02S4.77,6.87,4.77,6.87c-.16.1-.33.19-.5.28-.29.16-.58.33-.86.5-.25.17-.53.37-.72.62-.39.55-.39,1.48-.39,2.04v5.55Z"/>
        <path class="cls-4" d="M15.83,31.58c-.05,0-.11,0-.16,0-.37-.04-.72-.21-.95-.33-.34-.17-.68-.37-1-.57-.12-.07-.24-.14-.36-.21l-10.14-5.85c-.3-.17-.85-.48-.98-.76-.07-.15-.07-.36-.07-.51,0-.21,0-.42,0-.62,0-.15,0-.3,0-.45v-5.21c-.01-.1-.01-.22.02-.3l.02-.05h.06c.1.03.28.12.34.16l.9.53s.1.06.16.1c.29.17.68.4.84.62.18.26.21.64.21.98v2.2c0,.88,0,1.25.88,1.76l9.32,5.31c1.02.59,1.74.17,2.66-.36l.04-.02,5.01-2.89-.03,2.97-4.88,2.81c-.46.27-1.21.7-1.89.7ZM2.31,16.88c0,.07,0,.15,0,.18v5.21c.01.15.01.3,0,.46,0,.2-.01.41,0,.61,0,.14,0,.33.06.45.11.23.66.54.92.69l.07.04,10.08,5.82c.12.07.24.14.36.21.32.19.66.39,1,.56.22.12.56.28.9.32.67.07,1.48-.39,1.96-.67l4.81-2.77.03-2.63-4.83,2.78c-.92.53-1.71.99-2.8.36l-9.32-5.31c-.97-.56-.96-1-.96-1.89v-2.2c0-.32-.02-.68-.18-.9-.15-.2-.52-.42-.8-.58-.06-.03-.12-.07-.16-.1l-.9-.53s-.14-.08-.22-.11Z"/>
        <path class="cls-4" d="M23.23,27.64l-.02-.05c-.04-.1-.05-.31-.04-.37v-1.04s.01-.12.01-.12c0-.35,0-.84.11-1.11.14-.32.54-.54.75-.67l1.9-1.09c.75-.43,1.1-.62,1.1-1.66l-.06-10.74c0-1.17-.73-1.59-1.64-2.11l-.05-.03-5-2.89,2.59-1.45,4.88,2.81c.64.37,1.35.82,1.62,1.43.14.31.18.67.19.98.02.37.01.76,0,1.13,0,.15,0,.3,0,.45v11.71c0,.34,0,.98-.16,1.22-.09.13-.25.23-.41.32-.15.09-.31.18-.47.26-.16.09-.31.17-.46.26l-4.54,2.64c-.08.04-.17.09-.24.1h-.06ZM20.58,5.76l4.83,2.8c.92.53,1.71.98,1.72,2.24l.06,10.74c0,1.12-.39,1.34-1.17,1.78l-1.9,1.09c-.2.11-.57.33-.69.6-.11.25-.1.73-.1,1.05v.12s-.01,1.05-.01,1.05c0,.04,0,.16.01.24.05-.02.1-.05.13-.07h.03s4.51-2.63,4.51-2.63c.15-.09.31-.18.47-.26.16-.09.31-.17.47-.26.1-.06.28-.16.37-.27.14-.21.14-.84.14-1.14v-.09s0-11.63,0-11.63c0-.15,0-.3,0-.45,0-.37,0-.75,0-1.12-.01-.3-.05-.64-.18-.93-.25-.58-.94-1.01-1.57-1.37l-4.81-2.77-2.3,1.29Z"/>
      </g>
    </g>
  </g>
  <line class="cls-5" x1="9.59" y1="12.67" x2="15.69" y2="15.74"/>
  <line class="cls-5" x1="22.05" y1="12.68" x2="16.02" y2="15.82"/>
  <line class="cls-5" x1="15.88" y1="23.2" x2="15.88" y2="16.06"/>
</svg>