<?xml version="1.0" encoding="UTF-8"?>
<svg id="Camada_1" data-name="Camada 1" xmlns="http://www.w3.org/2000/svg" viewBox="0 0 96 96">
  <defs>
    <style>
      .cls-1, .cls-2 {
        fill: #6a5095;
      }

      .cls-3, .cls-4 {
        fill: #dfa232;
      }

      .cls-3, .cls-2 {
        fill-rule: evenodd;
      }

      .cls-5 {
        fill: none;
        stroke: #6a5095;
        stroke-linecap: round;
        stroke-linejoin: round;
        stroke-width: 1.58px;
      }
    </style>
  </defs>
  <g>
    <g>
      <g>
        <path class="cls-2" d="M25.28,57.93l-.02-18.37c.02-.83-.02-1.68,0-2.51.02-.66.08-1.3.42-1.87.59-1,2.44-1.76,3.46-2.31l27.52-15.18-3.78-2.19c-4.03-2.34-4.69-3.06-8.94-.62l-18.26,10.55c-2.46,1.42-5.73,3.29-7.24,5.8-1.3,2.1-1.47,4.76-1.47,7.16v14.63l8.3,4.91Z"/>
        <path class="cls-2" d="M67.52,63.09l-15.89,9.2c-.74.42-1.44.87-2.19,1.27-.57.3-1.15.57-1.81.55-1.19-.02-2.76-1.23-3.76-1.83l-26.91-16.25v4.35c0,4.67-.3,5.61,3.93,8.05l18.26,10.55c2.48,1.42,5.73,3.31,8.66,3.38,2.46.06,4.84-1.13,6.92-2.31l12.68-7.31.08-9.66Z"/>
        <path class="cls-2" d="M50.87,23.93l15.91,9.17c.72.42,1.47.81,2.19,1.25.57.34,1.08.7,1.4,1.27.57,1.04.32,3.02.3,4.16l-.62,31.45,3.78-2.19c4.04-2.34,4.99-2.55,4.99-7.43v-21.11c0-2.85,0-6.6-1.4-9.17-1.19-2.17-3.4-3.65-5.48-4.84l-12.66-7.33-8.41,4.76Z"/>
      </g>
      <g>
        <path class="cls-1" d="M25.49,58.3l-8.73-5.16v-14.75c0-2.51.18-5.13,1.5-7.27,1.52-2.52,4.82-4.43,7.23-5.82l18.35-10.61c4.08-2.35,5-1.81,8.42.19l4.84,2.8-27.85,15.37c-.2.11-.43.22-.67.34-1.01.51-2.26,1.14-2.71,1.89-.33.56-.38,1.2-.4,1.77-.01.41,0,.83,0,1.25,0,.42.01.84,0,1.26l.02,18.74ZM17.19,52.9l7.88,4.65-.02-18c.01-.42,0-.83,0-1.25,0-.42-.01-.85,0-1.26.02-.62.07-1.33.45-1.97.51-.86,1.83-1.52,2.89-2.06.24-.12.46-.23.66-.34l27.19-15-4.19-2.43c-3.41-2-4.12-2.41-7.99-.19l-18.35,10.61c-2.37,1.37-5.62,3.24-7.08,5.67-1.26,2.05-1.43,4.6-1.43,7.05v14.51Z"/>
        <path class="cls-1" d="M48.02,82.59c-.07,0-.13,0-.2,0-2.93-.06-6.09-1.87-8.63-3.33l-.13-.08-18.26-10.56c-4.06-2.35-4.05-3.41-4.04-7.37v-5.59s27.23,16.44,27.23,16.44c.21.12.44.27.69.43.93.6,2.08,1.35,2.96,1.36.6.02,1.12-.23,1.7-.53.43-.24.86-.49,1.28-.74.3-.18.59-.35.9-.53l16.21-9.38-.09,10.16-12.78,7.37c-2.14,1.22-4.44,2.35-6.84,2.35ZM17.19,56.42v4.84c-.02,3.96-.02,4.78,3.82,7l18.39,10.63c2.5,1.43,5.61,3.21,8.43,3.27,2.36.07,4.67-1.06,6.81-2.29l12.57-7.24.08-9.17-15.56,9.01c-.3.17-.6.35-.89.52-.43.26-.86.51-1.3.75-.64.33-1.22.6-1.91.58-1-.02-2.21-.8-3.18-1.43-.24-.16-.47-.31-.68-.43l-26.59-16.05Z"/>
        <path class="cls-1" d="M69.83,71.62l.62-31.83c0-.23.02-.49.03-.77.06-1.12.13-2.51-.3-3.29-.28-.51-.73-.84-1.32-1.19-.42-.26-.84-.5-1.27-.73-.31-.17-.62-.34-.92-.52l-16.23-9.36,8.84-5,12.76,7.39c2.06,1.18,4.33,2.68,5.56,4.92,1.43,2.62,1.43,6.47,1.43,9.28v21.11c0,4.69-.92,5.22-4.36,7.19l-4.85,2.8ZM51.3,23.93l15.58,8.99c.3.18.61.35.91.52.43.24.86.48,1.28.74.65.38,1.15.76,1.48,1.35.49.89.42,2.35.36,3.52-.01.27-.03.53-.03.75l-.61,31.08,4.2-2.43c3.43-1.97,4.14-2.38,4.14-6.82v-21.11c0-2.76,0-6.55-1.38-9.07-1.18-2.15-3.39-3.61-5.4-4.76l-12.55-7.27-7.98,4.51Z"/>
      </g>
    </g>
    <g>
      <g>
        <path class="cls-3" d="M7.55,47.74l7.14,4.2v-16.71c0-3.23-.06-5.84,3.1-7.69l27.4-16.01c2.97-1.72,3.97-.85,6.63.68l5.05,2.93c.74.42,1.78,1,2.68.91.96-.11,2.42-1.04,3.25-1.51l2.7-1.51c.17-.11.64-.38.81-.59-.15-.17-.51-.4-.66-.47l-13.38-7.69c-.91-.51-1.81-1.08-2.72-1.61-.36-.21-.87-.49-1.32-.53-.89-.08-2.74,1.04-3.48,1.49L14.96,20.81c-1.34.79-2.72,1.51-4.01,2.34-.79.53-1.61,1.13-2.19,1.89-1.17,1.61-1.21,4.25-1.21,6.16v16.54Z"/>
        <path class="cls-3" d="M67.56,83.56l.08-8.28-14.48,8.35c-2.78,1.61-5.03,2.97-8.2,1.15l-27.57-15.72c-2.97-1.72-2.72-3.02-2.72-6.07v-5.84c0-.87-.04-2.04-.57-2.78-.55-.76-2.1-1.57-2.91-2.06l-2.65-1.57c-.17-.11-.66-.36-.91-.4-.08.21-.08.64-.08.81l.04,15.42c0,1.04-.06,2.1-.04,3.16,0,.42,0,1.02.19,1.42.38.81,2.27,1.83,3.02,2.25l29.8,17.2c1.32.76,2.65,1.59,4.01,2.29.85.45,1.78.85,2.74.96,1.98.21,4.27-1.06,5.93-2.02l14.33-8.26Z"/>
        <path class="cls-3" d="M68.58,13.67l-7.22,4.06,14.46,8.37c2.8,1.61,5.1,2.87,5.12,6.52l.17,31.75c0,3.42-1.25,3.87-3.91,5.39l-5.05,2.91c-.74.42-1.76,1.04-2.12,1.87-.38.87-.32,2.61-.32,3.57l-.04,3.1c-.02.17,0,.72.11.98.21-.04.59-.25.72-.32l13.34-7.75c.91-.53,1.85-1.02,2.76-1.55.38-.21.89-.51,1.15-.87.51-.74.45-2.91.45-3.76v-34.38c0-1.55.04-3.12-.02-4.65-.04-.93-.15-1.95-.55-2.82-.81-1.83-3.06-3.19-4.71-4.14l-14.31-8.26Z"/>
      </g>
      <g>
        <path class="cls-4" d="M14.89,52.31l-7.56-4.46v-16.66c0-1.7,0-4.55,1.25-6.28.6-.8,1.47-1.42,2.24-1.94.84-.53,1.71-1.03,2.56-1.51.49-.28.98-.55,1.46-.84L44.68,3.41c1.29-.78,2.72-1.56,3.55-1.48.48.05,1,.32,1.4.56.38.22.76.45,1.14.68.52.32,1.04.63,1.57.93l13.38,7.69c.16.07.54.32.71.51l.12.13-.11.14c-.18.22-.58.47-.8.61l-.06.04-2.71,1.51c-.13.07-.27.15-.42.24-.87.51-2.06,1.2-2.91,1.29-.92.08-1.93-.44-2.8-.94l-5.64-3.27c-2.19-1.28-3.19-1.87-5.83-.34l-27.39,16.01c-3,1.75-3,4.21-3,7.32v.19s0,17.09,0,17.09ZM7.76,47.61l6.71,3.95v-16.53c0-3.12,0-5.81,3.21-7.68l27.4-16.01c2.85-1.65,3.99-.99,6.26.34l5.64,3.27c.63.36,1.7.97,2.55.89.76-.08,1.9-.75,2.74-1.24.15-.09.3-.17.43-.25l2.75-1.54c.13-.08.38-.23.55-.37-.15-.12-.34-.24-.43-.28l-13.4-7.7c-.53-.3-1.06-.62-1.59-.94-.38-.23-.75-.46-1.13-.68-.37-.21-.83-.47-1.23-.5-.8-.08-2.61,1.01-3.29,1.42l-.06.04L15.06,20.99c-.48.28-.98.56-1.47.84-.84.48-1.72.97-2.54,1.49-.74.5-1.57,1.09-2.13,1.84-1.17,1.61-1.17,4.38-1.17,6.03v16.42Z"/>
        <path class="cls-4" d="M47.74,94.08c-.16,0-.31,0-.46-.02-1.08-.12-2.13-.62-2.82-.98-1-.52-2-1.11-2.96-1.68-.35-.21-.71-.42-1.06-.62l-29.99-17.31c-.88-.5-2.53-1.43-2.91-2.23-.21-.45-.21-1.06-.21-1.51-.01-.61,0-1.23.02-1.83.01-.45.02-.89.02-1.34l-.04-15.42c0-.3.01-.66.1-.89l.06-.16.17.03c.31.05.83.34.99.43l2.65,1.57c.14.09.3.18.48.28.85.49,2.01,1.17,2.49,1.84.54.76.61,1.89.61,2.91v6.51c-.02,2.61-.03,3.69,2.61,5.22l27.56,15.71c3.01,1.74,5.16.5,7.87-1.08l.12-.07,14.81-8.53-.09,8.78-14.44,8.32c-1.37.79-3.59,2.07-5.59,2.07ZM7.78,50.59c-.03.19-.03.44-.03.54l.04,15.42c0,.45-.01.9-.02,1.35-.02.59-.03,1.21-.02,1.81,0,.41,0,.98.17,1.34.32.68,1.95,1.6,2.73,2.05l.2.11,29.8,17.2c.35.2.71.41,1.06.62.96.57,1.95,1.15,2.94,1.67.66.35,1.66.82,2.67.93,1.97.21,4.37-1.17,5.8-1.99l14.23-8.2.08-7.79-14.28,8.23c-2.72,1.58-5.07,2.94-8.29,1.08l-27.56-15.71c-2.85-1.65-2.85-2.97-2.83-5.59v-6.51c0-.95-.06-2-.53-2.66-.43-.59-1.55-1.24-2.36-1.72-.18-.1-.34-.2-.48-.28l-2.65-1.57c-.13-.08-.43-.24-.65-.32Z"/>
        <path class="cls-4" d="M69.64,82.42l-.07-.16c-.13-.31-.14-.91-.12-1.09l.04-3.08v-.36c0-1.05-.02-2.48.34-3.29.41-.94,1.58-1.61,2.21-1.97l5.61-3.23c2.23-1.27,3.25-1.85,3.25-4.89l-.17-31.75c-.02-3.47-2.16-4.69-4.86-6.25l-.15-.09-14.78-8.55,7.65-4.3,14.42,8.32c1.9,1.1,4,2.42,4.8,4.24.43.92.53,1.98.57,2.9.05,1.1.04,2.23.03,3.33,0,.44,0,.89,0,1.33v34.64c0,1.01.02,2.89-.48,3.62-.26.38-.74.67-1.22.94-.46.27-.92.52-1.39.78-.46.25-.92.51-1.37.77l-13.43,7.8c-.24.12-.51.26-.7.3l-.17.03ZM61.79,17.73l14.29,8.27c2.71,1.56,5.05,2.91,5.07,6.62l.17,31.75c0,3.3-1.16,3.95-3.46,5.26l-5.61,3.22c-.59.34-1.68.96-2.04,1.77-.32.73-.31,2.16-.3,3.12v.37s-.04,3.1-.04,3.1c-.02.13,0,.46.04.7.14-.06.3-.14.4-.19l.08-.04,13.32-7.75c.46-.27.92-.52,1.38-.77.46-.25.92-.51,1.38-.78.29-.16.84-.46,1.08-.81.42-.62.41-2.48.41-3.38v-.26s0-34.38,0-34.38c0-.44,0-.89,0-1.33,0-1.09.02-2.22-.03-3.31-.04-.87-.13-1.88-.53-2.74-.75-1.7-2.78-2.98-4.63-4.05l-14.21-8.2-6.79,3.81Z"/>
      </g>
    </g>
  </g>
  <line class="cls-5" x1="29.3" y1="38.16" x2="47.35" y2="47.24"/>
  <line class="cls-5" x1="66.14" y1="38.2" x2="48.3" y2="47.46"/>
  <line class="cls-5" x1="47.91" y1="69.29" x2="47.91" y2="48.17"/>
</svg>